<svg aria-hidden="true" style="width:0;height:0;position:absolute;overflow:hidden" xmlns="http://www.w3.org/2000/svg"><defs><symbol id="cross" viewBox="0 0 32 32"><path d="m17.131 16.8 9.034-9.034a.8.8 0 0 0-1.131-1.131L16 15.669 6.966 6.635a.8.8 0 0 0-1.131 1.131l9.034 9.034-9.034 9.034a.8.8 0 0 0 1.132 1.131l9.034-9.034 9.034 9.034a.8.8 0 1 0 1.132-1.131L17.133 16.8z"/></symbol><symbol id="logo" viewBox="0 0 30 32"><path d="M23.735 3.278c-.988.521-1.591.867-1.577.904.016.042.172.058.513.053.507-.008.769.033.769.121 0 .028-.229.355-.509.728l-.509.677-.198-.027c-.172-.023-.218-.006-.357.133-.13.13-.156.192-.14.332.019.16.008.174-.147.203-.195.036-.335.219-.335.436 0 .081-.007.148-.015.148s-.134-.07-.279-.156a10.82 10.82 0 0 0-3.689-1.339c-.677-.113-2.033-.153-2.737-.079A10.513 10.513 0 0 0 5.062 15.94c.005 2 .638 4.086 1.739 5.74l.328.493-.269.179c-.329.218-.755.664-.708.74.021.034.109-.031.227-.169.106-.124.322-.315.48-.424s.305-.244.326-.3c.099-.261 2.177-1.157 2.177-.939 0 .031-.028.064-.063.075-.663.192-1.709.647-1.982.861-.093.073-.092.081.048.267.079.105.405.459.724.786l.58.595H8.48a.745.745 0 0 0-.28.049c-.124.066-.224.327-.186.482.028.11.015.128-.093.128-.277 0-.45.292-.362.61.031.112-.065.261-.708 1.107-.567.745-.727.988-.674 1.021.089.055.056.092.876-.989l.69-.909.2.014c.286.021.474-.169.447-.451-.018-.186-.01-.2.113-.2.272 0 .46-.387.329-.676-.023-.052.171.067.433.264s.641.456.843.575c.202.119.367.24.367.27s-.116.242-.258.472c-.142.231-.243.434-.224.453.045.045.193-.149.416-.547l.194-.342c.005-.007.247.101.539.24.934.446 2.08.774 3.18.91.621.077 1.98.065 2.651-.023 3.989-.523 7.353-3.329 8.614-7.186.342-1.046.481-1.987.481-3.253 0-1.32-.162-2.291-.585-3.513-.353-1.019-1.048-2.258-1.742-3.108a12.96 12.96 0 0 0-1.632-1.607c-.365-.287-.437-.394-.269-.394.134 0 .289-.265.27-.463-.01-.102-.001-.176.019-.163s.115-.01.211-.05a.446.446 0 0 0 .242-.547c-.042-.111.006-.195.432-.754.679-.891.629-.851.821-.646.165.176.284.47.341.842.071.458.167.262.687-1.404.273-.875.49-1.597.483-1.605s-.734.366-1.614.829zm-1.34 2.598c.167.131.183.402.032.553s-.422.135-.553-.032c-.12-.152-.128-.217-.049-.391.107-.234.363-.293.57-.13zm-.478.685c.183.154.199.307.051.495a.308.308 0 0 1-.278.133c-.509 0-.498-.721.012-.755.033-.002.13.055.215.127zm-.682.523c.016.026-.057.074-.162.107-.546.175-2.342 1.018-2.342 1.099 0 .021.222.146.494.278s.547.282.613.333l.119.093-1.807 2.375c-.994 1.306-1.828 2.383-1.853 2.392-.104.038-.011-1.4.137-2.118.154-.746.515-1.608.898-2.145.265-.371.848-.934 1.135-1.095.112-.063.194-.142.182-.174-.027-.069 1.116-.653 1.904-.973.564-.229.636-.247.682-.173zm.385.998c-.1.681-.343 1.746-.409 1.791-.02.014-.074.169-.119.344-.314 1.231-1.256 2.303-2.617 2.979-.629.313-2.015.765-1.964.642.01-.025.827-1.107 1.814-2.406l1.795-2.36.22.158c.121.087.336.257.478.378s.275.202.295.179c.064-.07.296-1.127.381-1.737.095-.685.11-.743.175-.677.031.031.013.291-.049.709zm-.429-.128c.011.018-.013.061-.055.096-.063.052-.075.045-.075-.043a.195.195 0 0 0-.095-.156c-.074-.039-.116-.027-.189.054-.093.102-.092.106.017.195.137.111.092.178-.052.077-.093-.065-.111-.062-.175.029-.056.08-.058.117-.01.176.034.041.045.074.025.074-.066 0-.33-.173-.33-.216 0-.024.021-.03.047-.014.066.041.358-.324.393-.49l.029-.138.226.162a1.9 1.9 0 0 1 .246.196zm-4.765-.206c.77.088 2.002.392 2.002.494 0 .02-.147.144-.326.277-1.23.91-1.953 2.742-1.953 4.948v.495l-.392.056c-.714.102-1.343.161-1.374.13-.074-.074-.026-1.016.064-1.279.051-.148.084-.278.073-.288s-.127.066-.259.169a2.632 2.632 0 0 0-.927 1.628c-.027.203-.058.247-.28.4-.662.456-1.36 1.502-1.678 2.511-.232.737-.309 1.331-.312 2.402l-.003.984-.177.043c-.097.024-.477.133-.842.244s-.676.201-.69.201c-.042 0-.564-.717-.755-1.038a8.599 8.599 0 0 1-1.111-3.038c-.083-.529-.083-1.922.001-2.405.32-1.853 1.078-3.341 2.343-4.596a7.809 7.809 0 0 1 1.967-1.448c1.442-.751 3.085-1.066 4.63-.889zM8.444 9.427c.091.091.074.136-.04.106-.065-.017-.112.004-.134.06-.041.107.372.484.483.441.051-.02.06-.007.031.044-.119.207-.31.339-.245.169.046-.12-.384-.544-.474-.469-.037.031-.055.099-.038.15.036.113-.068.128-.111.017-.018-.048.054-.171.191-.324.249-.277.253-.28.338-.196zm13.676 1.559c.72.948 1.211 2.035 1.473 3.265.138.649.19 1.964.102 2.624-.367 2.765-2.014 5.081-4.507 6.336-1.683.848-3.851 1.069-5.672.579-.545-.147-1.513-.534-1.9-.76-.214-.125-.338-.172-.349-.133a36.62 36.62 0 0 0-.125.571c-.169.796-.463 1.642-.569 1.642-.063 0-.066.013.179-.683.098-.278.23-.763.293-1.076.066-.323.14-.57.173-.57.087 0 .135-.74.089-1.385l-.042-.61c-.001-.025.192-.085.429-.133a8.347 8.347 0 0 0 1.899-.656c1.245-.61 1.992-1.32 2.491-2.368.183-.383.248-.474.359-.501.386-.092.788-.331 1.114-.663.186-.189.377-.414.426-.501l.088-.158-.316.127c-.22.089-.449.135-.754.152l-.438.025-.033.234c-.048.346-.175.765-.231.765-.066 0-.063-.045.027-.388.042-.16.076-.378.076-.483 0-.127.023-.192.068-.192.056 0 .051-.1-.025-.544a8.704 8.704 0 0 1-.106-.997l-.013-.453.658-.183c1.448-.402 2.418-.947 3.204-1.8.492-.534.863-1.2 1.028-1.846l.058-.228.279.304c.153.167.408.475.567.684zm-6.071 3.116c0 .04-.9 1.225-.956 1.26-.064.04-.381-.4-.543-.754-.072-.158-.123-.295-.114-.304s.348-.055.751-.101.743-.094.755-.106c.031-.031.106-.028.106.005zm.28 1.371c.1.621.105.594-.103.56-.218-.035-.8-.317-.913-.442-.079-.087-.056-.127.39-.71l.473-.618.04.374c.022.205.073.581.114.835zm-2.834.171c.105.263.302.567.52.8l.152.163-1.393 1.835a106.44 106.44 0 0 1-1.484 1.929c-.088.092-.092.079-.125-.38-.059-.831.091-1.98.363-2.778.317-.93.809-1.678 1.474-2.241l.285-.241.059.342c.032.188.1.445.149.57zm1.542 1.445c.125.045.425.097.667.116l.439.034-.168.361c-.411.887-1.292 1.74-2.331 2.26-.585.293-2.16.805-2.237.728-.014-.014.632-.889 1.435-1.945l1.46-1.921.254.142c.139.078.356.18.481.225zm-4.504 4.298c-.353.456-.428.527-.506.485-.12-.064-.57-.565-.537-.597.039-.039 1.418-.461 1.439-.44.01.01-.168.259-.396.553zm.673.071c.034.516-.006 1.273-.067 1.273-.067 0-.862-.607-.862-.658 0-.076.823-1.162.863-1.138.018.011.048.247.066.523zm11.809.259c.128.092.261.15.304.134.091-.035.065.017-.146.288-.082.106-.182.186-.222.177-.099-.021-.086-.115.016-.116.045 0 .107-.039.137-.086.042-.066.032-.11-.043-.193l-.097-.107-.087.116c-.048.064-.104.099-.124.079s.001-.079.048-.13c.079-.087.078-.099-.009-.177-.122-.111-.144-.107-.242.043-.067.102-.071.142-.02.203.035.042.041.076.012.076s-.079-.034-.113-.075c-.051-.061-.027-.123.133-.341.162-.221.198-.248.21-.16.008.059.118.18.243.27zm-13.219.943c-.001.124-.15.831-.174.83-.046-.003-.205-.134-.205-.169 0-.018.028-.027.062-.02s.069-.033.078-.089c.011-.069-.032-.13-.132-.189-.128-.076-.156-.078-.209-.014-.033.04-.045.099-.025.131.027.043.009.044-.069.002-.125-.067-.189-.157-.111-.157.031 0 .197-.091.37-.201.299-.192.416-.226.415-.123zm-.271.153c-.09.063-.101.094-.054.151.087.105.133.088.17-.061.043-.171.022-.187-.116-.09zm-.892 1.116c.129.05.226.317.168.467-.113.298-.417.346-.625.1-.1-.119-.127-.193-.104-.291.058-.244.313-.37.56-.276zm-.397.735c.155.146.152.366-.007.525-.351.351-.865-.156-.525-.518a.374.374 0 0 1 .532-.007z"/></symbol><symbol id="facebook" viewBox="0 0 32 32"><path d="M19 6h5V0h-5c-3.86 0-7 3.14-7 7v3H8v6h4v16h6V16h5l1-6h-6V7c0-.542.458-1 1-1z"/></symbol><symbol id="instagram" viewBox="0 0 32 32"><path d="M16 2.881c4.275 0 4.781.019 6.462.094 1.563.069 2.406.331 2.969.55a4.952 4.952 0 0 1 1.837 1.194 5.015 5.015 0 0 1 1.2 1.838c.219.563.481 1.412.55 2.969.075 1.688.094 2.194.094 6.463s-.019 4.781-.094 6.463c-.069 1.563-.331 2.406-.55 2.969a4.94 4.94 0 0 1-1.194 1.837 5.02 5.02 0 0 1-1.837 1.2c-.563.219-1.413.481-2.969.55-1.688.075-2.194.094-6.463.094s-4.781-.019-6.463-.094c-1.563-.069-2.406-.331-2.969-.55a4.952 4.952 0 0 1-1.838-1.194 5.02 5.02 0 0 1-1.2-1.837c-.219-.563-.481-1.413-.55-2.969-.075-1.688-.094-2.194-.094-6.463s.019-4.781.094-6.463c.069-1.563.331-2.406.55-2.969a4.964 4.964 0 0 1 1.194-1.838 5.015 5.015 0 0 1 1.838-1.2c.563-.219 1.412-.481 2.969-.55 1.681-.075 2.188-.094 6.463-.094zM16 0c-4.344 0-4.887.019-6.594.094-1.7.075-2.869.35-3.881.744-1.056.412-1.95.956-2.837 1.85a7.833 7.833 0 0 0-1.85 2.831C.444 6.538.169 7.7.094 9.4.019 11.113 0 11.656 0 16s.019 4.887.094 6.594c.075 1.7.35 2.869.744 3.881.413 1.056.956 1.95 1.85 2.837a7.82 7.82 0 0 0 2.831 1.844c1.019.394 2.181.669 3.881.744 1.706.075 2.25.094 6.594.094s4.888-.019 6.594-.094c1.7-.075 2.869-.35 3.881-.744 1.05-.406 1.944-.956 2.831-1.844s1.438-1.781 1.844-2.831c.394-1.019.669-2.181.744-3.881.075-1.706.094-2.25.094-6.594s-.019-4.887-.094-6.594c-.075-1.7-.35-2.869-.744-3.881a7.506 7.506 0 0 0-1.831-2.844A7.82 7.82 0 0 0 26.482.843C25.463.449 24.301.174 22.601.099c-1.712-.081-2.256-.1-6.6-.1z"/><path d="M16 7.781c-4.537 0-8.219 3.681-8.219 8.219s3.681 8.219 8.219 8.219 8.219-3.681 8.219-8.219A8.221 8.221 0 0 0 16 7.781zm0 13.55a5.331 5.331 0 1 1 0-10.663 5.331 5.331 0 0 1 0 10.663zM26.462 7.456a1.919 1.919 0 1 1-3.838 0 1.919 1.919 0 0 1 3.838 0z"/></symbol><symbol id="twitter" viewBox="0 0 32 32"><path d="M32 7.075a12.941 12.941 0 0 1-3.769 1.031 6.601 6.601 0 0 0 2.887-3.631 13.21 13.21 0 0 1-4.169 1.594A6.565 6.565 0 0 0 22.155 4a6.563 6.563 0 0 0-6.563 6.563c0 .512.056 1.012.169 1.494A18.635 18.635 0 0 1 2.23 5.195a6.56 6.56 0 0 0-.887 3.3 6.557 6.557 0 0 0 2.919 5.463 6.565 6.565 0 0 1-2.975-.819v.081a6.565 6.565 0 0 0 5.269 6.437 6.574 6.574 0 0 1-2.968.112 6.588 6.588 0 0 0 6.131 4.563 13.17 13.17 0 0 1-9.725 2.719 18.568 18.568 0 0 0 10.069 2.95c12.075 0 18.681-10.006 18.681-18.681 0-.287-.006-.569-.019-.85A13.216 13.216 0 0 0 32 7.076z"/></symbol></defs></svg>