<svg width="505" height="532" viewBox="0 0 505 532" fill="none" xmlns="http://www.w3.org/2000/svg">
<circle cx="259" cy="264" r="155.5" fill="white" stroke="#0F0C16" stroke-width="39"/>
<line x1="102.806" y1="453.092" x2="391.806" y2="73.092" stroke="#0F0C16" stroke-width="3"/>
<path d="M234.497 275.038C239.285 279.497 245.056 282.765 251.342 284.579C257.628 286.392 264.252 286.7 270.679 285.477C277.106 284.254 283.155 281.535 288.336 277.54C293.517 273.545 297.684 268.386 300.5 262.481C292.79 266.861 283.882 268.667 275.075 267.636C266.267 266.604 258.018 262.79 251.527 256.747C245.037 250.704 240.644 242.748 238.987 234.036C237.33 225.325 238.496 216.311 242.315 208.308C236.626 211.538 231.777 216.063 228.162 221.515C224.546 226.968 222.266 233.195 221.504 239.693C220.743 246.191 221.523 252.777 223.78 258.917C226.037 265.058 229.709 270.581 234.497 275.038Z" fill="#0F0C16"/>
<circle cx="360.5" cy="113.5" r="7" fill="#FAF8F0" stroke="black"/>
<circle cx="140.5" cy="403.5" r="7" fill="white" stroke="black"/>
<circle cx="132.5" cy="414.5" r="7" fill="white" stroke="black"/>
<circle cx="368.5" cy="102.5" r="7" fill="white" stroke="black"/>
<path d="M383.169 68.7021C379.07 68.2853 374.269 68.6094 368.669 69.8237L419.484 43.0229L403.608 93.8245C403.477 88.0401 402.274 82.3163 399.264 77.7553C396.045 72.8773 390.858 69.4841 383.169 68.7021Z" stroke="#0F0C16" stroke-width="3"/>
<path d="M415.75 47C410.446 58.5935 407.911 70.9511 404.806 83.25C404.749 83.4744 404.697 83.7017 404.611 83.9167C404.284 84.7351 405.007 82.1984 405.236 81.3472C406.892 75.1943 408.883 69.1655 410.903 63.125C411.935 60.0362 413.016 56.9484 413.778 53.7778C413.909 53.2336 414.699 51.2969 413.556 52.9861C410.276 57.8333 407.15 62.9781 404.833 68.3611C402.901 72.8506 401.826 77.0695 403.083 81.8056C403.189 82.2029 403.517 83.898 403.792 82.3611C404.276 79.6497 404.606 76.6644 404.278 73.9167C404.211 73.3619 403.299 76.0204 404.903 73.1528C405.917 71.34 407.019 69.1511 407.361 67.0694C408.226 61.8041 410.863 57.071 413.833 52.6944C414.373 51.8994 415.531 50.7535 415.875 49.7778C416.218 48.8047 414.837 48.414 414.153 48.6389C410.87 49.7176 409.331 54.7301 408.264 57.5833C406.435 62.4746 403.72 66.712 401.306 71.3056C400.531 72.7791 399.979 74.4321 400.056 76.1111C400.068 76.3793 399.631 75.7677 399.486 75.5417C398.091 73.3646 396.463 72.1077 394.153 70.9444C390.667 69.1887 387.29 67.4343 383.319 67.2083C382.139 67.1412 380.958 67.2409 379.778 67.25C378.906 67.2568 377.054 67.5887 378.694 66.4167C384.977 61.929 391.738 57.5354 398.944 54.7222C401.585 53.6914 404.288 52.6638 406.972 51.75C409.774 50.7962 407.451 54.6524 407.056 55.6944C405.105 60.8334 403.172 66.1328 399.944 70.6389C398.893 72.1069 398.385 72.6358 396.708 71.7639C392.942 69.8055 389.401 67.6208 385.458 65.9861C385.193 65.876 381.475 64.76 384.417 64.9722C387.865 65.2211 391.292 65.8924 394.611 66.8472C395.465 67.0929 396.31 67.3736 397.139 67.6944C397.68 67.904 398.899 68.1797 398.583 68.6667C397.822 69.8407 391.956 66.546 391.417 66.2778C390.083 65.6147 386.312 63.8352 387.792 63.6667C390.687 63.3368 394.278 64.8067 397 65.5556C397.735 65.7576 398.454 66.0166 399.194 66.1944C400.399 66.4834 399.445 65.8992 398.944 65.5694C396.43 63.9118 393.675 63.0775 390.792 62.3333C388.61 61.7702 391.161 62.0069 391.444 62.0556C394.653 62.6066 397.663 63.8528 400.167 65.9444C400.961 66.6085 400.989 67.0435 401.486 65.9861C402.545 63.7316 403.628 61.4677 404.514 59.1389C404.726 58.582 405.807 56.3344 405.167 55.5833C404.643 54.9687 402.795 55.8252 402.389 55.9583C400.321 56.6355 398.228 57.2479 396.167 57.9444C394.875 58.3809 392.246 59.08 391.333 60.2778C390.743 61.0529 398.553 63.6013 400.056 62.8611C401.41 62.1942 402.526 60.3931 402.986 59.0139C403.665 56.9763 399.313 58.9082 398.694 59.0556C397.66 59.3019 394.732 59.4165 395.639 59.9722C396.477 60.4862 397.758 60.5861 398.694 60.8472C399.068 60.9514 399.618 61.2636 400.028 61.2778C401.284 61.3211 397.532 60.9733 396.278 60.8889C396.196 60.8834 391.783 60.8949 391.931 59.9861C392.096 58.9671 393.538 58.6441 394.486 58.2361C396.932 57.1839 398.229 56.9818 400.861 56.2639C403.116 55.649 405.652 55.1825 407.417 53.5C407.553 53.3697 407.705 52.8805 407.528 52.9444C407.276 53.035 405.535 53.9823 405.5 54" stroke="#0F0C16" stroke-width="3" stroke-linecap="round"/>
<path d="M404.5 87.75C403.102 80.5214 399.104 74.5347 394.694 68.7222C392.882 66.3337 390.706 63.3162 387.611 62.4722C387.542 62.4533 384.958 62.1157 385.278 62.8611C385.987 64.5165 393.459 63.9156 394.5 64" stroke="#0F0C16" stroke-width="3" stroke-linecap="round"/>
<path d="M406.5 52.5C407.528 51.5804 408.538 50.6211 409.889 50.1944C411.533 49.6753 410.7 50.4668 411.5 51" stroke="#0F0C16" stroke-width="3" stroke-linecap="round"/>
<path d="M396.75 68.75C395.041 70.6724 393.125 73.0835 391 74.5" stroke="#0F0C16" stroke-width="3" stroke-linecap="round"/>
<path d="M397.25 69C396.997 69.8232 397.84 69.8376 396.5 69.5556C394.586 69.1527 394.113 70.6941 393.194 72C392.419 73.1028 391.5 74.3626 391.5 72.5" stroke="#0F0C16" stroke-width="3" stroke-linecap="round"/>
<path d="M353 117.5C353 117.5 334.022 123.839 310 137" stroke="white" stroke-width="2"/>
<path d="M186.5 344C186.5 344 253.5 336 270 284.5" stroke="#0F0C16" stroke-width="2"/>
<path d="M274 257.5C274 257.5 276 271 270.5 284.5" stroke="white" stroke-width="2"/>
<path d="M310 137C310 137 253.264 160.291 274 267" stroke="#0F0C16" stroke-width="2"/>
<path d="M186.5 344C186.5 344 117.506 360.525 102.5 384" stroke="#0F0C16" stroke-width="2"/>
<path d="M119.5 369.5C119.5 369.5 133 359 155.5 353.5" stroke="white" stroke-width="2"/>
<path d="M360 122.5C357.5 141.5 357 146.5 352 164" stroke="white" stroke-width="2"/>
<path d="M352.5 165C352.5 165 348.5 235 225 237" stroke="#0F0C16" stroke-width="2"/>
<path d="M222 243.5C222 243.5 177.5 266.5 185.5 344.5" stroke="#0F0C16" stroke-width="2"/>
<path d="M166 433.5C166 433.5 194 399 186 344" stroke="#0F0C16" stroke-width="2"/>
<path d="M186.5 379C186.5 379 183 402.5 175.5 417.5" stroke="white" stroke-width="2"/>
<path d="M341.767 141.082C341.679 140.963 341.457 140.776 341.098 140.521L337.137 137.705C336.889 137.529 336.715 137.348 336.617 137.163C336.526 136.976 336.556 136.778 336.705 136.568C336.81 136.42 336.935 136.325 337.079 136.284C337.217 136.454 337.37 136.598 337.537 136.717C337.709 136.839 337.862 136.923 337.995 136.968C338.132 137.007 338.276 137.012 338.427 136.983C338.768 136.917 339.092 136.669 339.398 136.239L344.479 129.089C344.775 128.674 344.796 128.29 344.543 127.938C344.471 127.836 344.391 127.736 344.303 127.638C344.223 127.538 344.144 127.442 344.066 127.35C343.995 127.257 343.936 127.168 343.888 127.084C343.787 126.883 343.789 126.708 343.894 126.56C344.033 126.364 344.172 126.25 344.309 126.219C344.373 126.3 344.448 126.372 344.534 126.433L351.784 131.586C352.214 131.891 352.45 132.12 352.493 132.273C352.574 132.532 352.439 132.91 352.086 133.407C351.746 133.884 351.437 134.239 351.156 134.472C350.88 134.699 350.7 134.83 350.618 134.865C350.481 134.926 350.353 134.914 350.234 134.829C350.038 134.69 349.921 134.556 349.882 134.429C349.849 134.304 349.842 134.227 349.862 134.199C350.297 133.487 350.497 132.942 350.462 132.566C350.431 132.155 350.09 131.719 349.441 131.257L348.065 130.279C347.554 129.916 347.202 129.734 347.009 129.733C346.823 129.731 346.671 129.778 346.553 129.873C346.438 129.964 346.314 130.099 346.18 130.277L343.833 133.579L344.169 133.819C345.32 134.637 346.393 135.262 347.386 135.695C347.507 135.889 347.41 136.208 347.094 136.652C346.931 136.881 346.735 137.066 346.507 137.205C346.176 137.013 345.832 136.79 345.473 136.535C345.115 136.281 344.744 135.984 344.359 135.646L343.135 134.561L340.839 137.792C340.547 138.202 340.696 138.675 341.286 139.21C341.774 139.657 342.058 139.96 342.14 140.118C342.229 140.275 342.271 140.398 342.265 140.488C342.263 140.572 342.231 140.657 342.17 140.743C342.044 140.92 341.91 141.033 341.767 141.082Z" fill="white"/>
<path d="M156.877 387.224C157.054 387.4 157.192 387.523 157.293 387.595C157.393 387.666 157.498 387.726 157.607 387.775C157.724 387.822 157.838 387.849 157.948 387.856C158.195 387.873 158.398 387.769 158.558 387.545C158.69 387.358 158.78 387.11 158.829 386.799L159.342 384.651L154.807 381.428L152.558 382.892C152.35 383.024 152.215 383.133 152.154 383.219C152.096 383.3 152.064 383.371 152.057 383.431C152.059 383.49 152.075 383.552 152.108 383.618C152.144 383.687 152.197 383.76 152.264 383.837L152.502 384.125C152.78 384.401 152.949 384.593 153.009 384.701C153.131 384.924 153.129 385.124 153.003 385.301C152.912 385.429 152.798 385.514 152.662 385.554C152.588 385.465 152.513 385.394 152.436 385.34L149.521 383.267C148.886 382.816 148.692 382.416 148.94 382.067C149.055 381.905 149.184 381.799 149.327 381.749C149.47 381.923 149.601 382.052 149.72 382.137C149.845 382.225 149.961 382.279 150.069 382.298C150.182 382.321 150.309 382.315 150.45 382.278C150.691 382.212 151.066 382.004 151.574 381.653L161.203 375.601C161.466 375.443 161.862 375.487 162.391 375.734C162.537 375.802 162.682 375.886 162.825 375.988C163.116 376.195 163.239 376.401 163.194 376.607L162.638 378.907C161.703 383.145 161.149 385.613 160.977 386.31L160.42 388.459C160.288 388.918 160.234 389.221 160.259 389.368C160.284 389.516 160.334 389.641 160.411 389.746C160.487 389.851 160.57 389.952 160.658 390.051C160.754 390.148 160.831 390.242 160.888 390.334C161.012 390.544 161.015 390.732 160.896 390.9C160.804 391.028 160.69 391.113 160.554 391.153C160.48 391.064 160.408 390.995 160.336 390.944L156.919 388.515C156.675 388.342 156.505 388.177 156.407 388.022C156.317 387.864 156.317 387.724 156.405 387.6C156.558 387.385 156.715 387.259 156.877 387.224ZM159.649 383.339L161.072 377.362L155.931 380.696L159.649 383.339Z" fill="white"/>
<path d="M147.02 166.955C146.893 167.021 146.676 167.215 146.369 167.538L142.906 171.182C142.697 171.403 142.493 171.549 142.296 171.62C142.099 171.683 141.906 171.626 141.72 171.449C141.588 171.324 141.512 171.187 141.492 171.038C141.687 170.917 141.854 170.784 141.991 170.64C142.128 170.495 142.243 170.345 142.334 170.19C142.425 170.034 142.487 169.862 142.52 169.675C142.604 169.238 142.476 168.841 142.135 168.485L135.05 161.753L134.263 162.581C133.678 163.197 133.324 163.629 133.202 163.876C133.08 164.116 133.017 164.327 133.013 164.509C133.013 164.687 133.062 164.879 133.158 165.084C133.321 165.44 133.696 165.955 134.286 166.628C134.218 166.741 134.148 166.836 134.075 166.913C133.914 167.083 133.766 167.149 133.633 167.111C133.499 167.073 133.377 167.018 133.268 166.946C133.154 166.87 133.036 166.782 132.913 166.681C132.667 166.48 132.415 166.257 132.156 166.011C131.447 165.337 131.049 164.853 130.963 164.561C130.864 164.257 130.972 163.94 131.287 163.608C131.347 163.544 131.442 163.457 131.572 163.346C131.702 163.235 131.886 163.071 132.125 162.853C132.765 162.257 133.504 161.517 134.344 160.633L135.367 159.556C136.538 158.325 137.301 157.482 137.659 157.03C138.012 156.573 138.237 156.294 138.334 156.192C138.43 156.09 138.534 156.011 138.645 155.954C138.755 155.897 138.862 155.87 138.966 155.871C139.136 155.879 139.291 155.95 139.431 156.083C139.644 156.285 139.807 156.453 139.923 156.587C140.038 156.72 140.175 156.879 140.333 157.061C140.495 157.239 140.657 157.43 140.82 157.633C141.205 158.112 141.438 158.475 141.519 158.722C141.557 158.92 141.518 159.08 141.401 159.203C141.288 159.322 141.176 159.418 141.066 159.492L140.671 159.104C140.293 158.745 139.975 158.483 139.718 158.32C139.457 158.153 139.209 158.086 138.973 158.121C138.734 158.152 138.48 158.283 138.213 158.514C137.941 158.74 137.603 159.066 137.199 159.491L136.473 160.256L143.806 167.224C144.112 167.514 144.557 167.472 145.14 167.097C145.278 167.002 145.408 166.912 145.531 166.825C145.657 166.735 145.781 166.651 145.903 166.574C146.022 166.492 146.13 166.433 146.228 166.397C146.426 166.326 146.605 166.367 146.766 166.52C146.915 166.662 146.999 166.807 147.02 166.955Z" fill="white"/>
<path d="M375.327 365.363C375.337 365.571 375.289 365.744 375.181 365.884C375.017 366.097 374.892 366.197 374.807 366.183C374.305 366.085 373.637 365.714 372.801 365.07C372.221 364.623 371.851 364.235 371.691 363.905C371.649 363.806 371.646 363.733 371.682 363.687L377.603 356C378.029 355.448 378.406 355.298 378.736 355.552C378.912 355.688 379.018 355.829 379.054 355.975C378.886 356.097 378.745 356.232 378.63 356.381C378.516 356.529 378.429 356.666 378.37 356.79C378.311 356.915 378.283 357.052 378.286 357.203C378.286 357.558 378.49 357.893 378.899 358.207L385.952 363.641C386.355 363.952 386.738 363.988 387.1 363.749C387.204 363.681 387.307 363.605 387.409 363.521C387.512 363.445 387.61 363.369 387.705 363.294C387.801 363.228 387.892 363.172 387.978 363.127C388.183 363.034 388.358 363.043 388.502 363.154C388.692 363.3 388.8 363.443 388.827 363.581C388.739 363.647 388.663 363.722 388.599 363.805L383.111 370.928C382.782 371.355 382.537 371.591 382.376 371.637C382.087 371.725 381.705 371.586 381.232 371.222C380.777 370.871 380.436 370.546 380.209 370.245C379.978 369.949 379.848 369.763 379.817 369.688C379.769 369.577 379.797 369.455 379.901 369.32C380.051 369.125 380.178 369.008 380.282 368.97C380.386 368.939 380.452 368.931 380.479 368.944C381.189 369.395 381.692 369.616 381.987 369.607C382.288 369.602 382.549 369.522 382.771 369.368C382.994 369.222 383.231 368.986 383.482 368.661L384.678 367.109C385.057 366.617 385.241 366.277 385.229 366.091C385.214 365.909 385.152 365.754 385.043 365.626C384.939 365.502 384.788 365.363 384.588 365.209L381.622 362.924L381.299 363.329C380.508 364.355 379.866 365.376 379.371 366.393C379.288 366.433 379.151 366.42 378.958 366.353C378.771 366.289 378.602 366.2 378.454 366.086C378.203 365.893 378.017 365.683 377.896 365.456C378.104 365.129 378.362 364.765 378.669 364.366C378.977 363.967 379.641 363.239 380.661 362.184L377.521 359.765C377.173 359.496 376.867 359.409 376.603 359.501C376.38 359.58 376.111 359.824 375.796 360.233L375.014 361.305C374.268 362.351 373.9 363.121 373.91 363.617C373.917 363.896 374.012 364.151 374.197 364.382C374.382 364.613 374.587 364.816 374.815 364.991C375.047 365.17 375.218 365.294 375.327 365.363Z" fill="white"/>
</svg>
