<svg aria-hidden="true" style="position: absolute; width: 0; height: 0; overflow: hidden;" version="1.1" xmlns="http://www.w3.org/2000/svg" xmlns:xlink="http://www.w3.org/1999/xlink">
<defs>
<symbol id="cross" viewBox="0 0 32 32">
<path d="M17.131 16.8l9.034-9.034c0.312-0.312 0.312-0.819 0-1.131s-0.819-0.312-1.131 0l-9.034 9.034-9.034-9.034c-0.312-0.312-0.819-0.312-1.131 0s-0.312 0.819 0 1.131l9.034 9.034-9.034 9.034c-0.312 0.312-0.312 0.819 0 1.131 0.157 0.157 0.362 0.234 0.566 0.234s0.41-0.078 0.566-0.234l9.034-9.034 9.034 9.034c0.157 0.157 0.362 0.234 0.566 0.234s0.41-0.078 0.566-0.234c0.312-0.312 0.312-0.819 0-1.131l-9.034-9.034z"></path>
</symbol>
<symbol id="logo" viewBox="0 0 30 32">
<path d="M23.735 3.278c-0.988 0.521-1.591 0.867-1.577 0.904 0.016 0.042 0.172 0.058 0.513 0.053 0.507-0.008 0.769 0.033 0.769 0.121 0 0.028-0.229 0.355-0.509 0.728l-0.509 0.677-0.198-0.027c-0.172-0.023-0.218-0.006-0.357 0.133-0.13 0.13-0.156 0.192-0.14 0.332 0.019 0.16 0.008 0.174-0.147 0.203-0.195 0.036-0.335 0.219-0.335 0.436 0 0.081-0.007 0.148-0.015 0.148s-0.134-0.070-0.279-0.156c-1.123-0.662-2.387-1.121-3.689-1.339-0.677-0.113-2.033-0.153-2.737-0.079-5.418 0.563-9.477 5.080-9.463 10.528 0.005 2 0.638 4.086 1.739 5.74l0.328 0.493-0.269 0.179c-0.329 0.218-0.755 0.664-0.708 0.74 0.021 0.034 0.109-0.031 0.227-0.169 0.106-0.124 0.322-0.315 0.48-0.424s0.305-0.244 0.326-0.3c0.099-0.261 2.177-1.157 2.177-0.939 0 0.031-0.028 0.064-0.063 0.075-0.663 0.192-1.709 0.647-1.982 0.861-0.093 0.073-0.092 0.081 0.048 0.267 0.079 0.105 0.405 0.459 0.724 0.786l0.58 0.595h-0.189c-0.104 0-0.23 0.022-0.28 0.049-0.124 0.066-0.224 0.327-0.186 0.482 0.028 0.11 0.015 0.128-0.093 0.128-0.277 0-0.45 0.292-0.362 0.61 0.031 0.112-0.065 0.261-0.708 1.107-0.567 0.745-0.727 0.988-0.674 1.021 0.089 0.055 0.056 0.092 0.876-0.989l0.69-0.909 0.2 0.014c0.286 0.021 0.474-0.169 0.447-0.451-0.018-0.186-0.010-0.2 0.113-0.2 0.272 0 0.46-0.387 0.329-0.676-0.023-0.052 0.171 0.067 0.433 0.264s0.641 0.456 0.843 0.575c0.202 0.119 0.367 0.24 0.367 0.27s-0.116 0.242-0.258 0.472c-0.142 0.231-0.243 0.434-0.224 0.453 0.045 0.045 0.193-0.149 0.416-0.547 0.102-0.181 0.189-0.335 0.194-0.342s0.247 0.101 0.539 0.24c0.934 0.446 2.080 0.774 3.18 0.91 0.621 0.077 1.98 0.065 2.651-0.023 3.989-0.523 7.353-3.329 8.614-7.186 0.342-1.046 0.481-1.987 0.481-3.253 0-1.32-0.162-2.291-0.585-3.513-0.353-1.019-1.048-2.258-1.742-3.108-0.397-0.485-1.152-1.23-1.632-1.607-0.365-0.287-0.437-0.394-0.269-0.394 0.134 0 0.289-0.265 0.27-0.463-0.010-0.102-0.001-0.176 0.019-0.163s0.115-0.010 0.211-0.050c0.206-0.086 0.319-0.343 0.242-0.547-0.042-0.111 0.006-0.195 0.432-0.754 0.679-0.891 0.629-0.851 0.821-0.646 0.165 0.176 0.284 0.47 0.341 0.842 0.071 0.458 0.167 0.262 0.687-1.404 0.273-0.875 0.49-1.597 0.483-1.605s-0.734 0.366-1.614 0.829zM22.395 5.876c0.167 0.131 0.183 0.402 0.032 0.553s-0.422 0.135-0.553-0.032c-0.12-0.152-0.128-0.217-0.049-0.391 0.107-0.234 0.363-0.293 0.57-0.13zM21.917 6.561c0.183 0.154 0.199 0.307 0.051 0.495-0.077 0.098-0.151 0.133-0.278 0.133-0.509 0-0.498-0.721 0.012-0.755 0.033-0.002 0.13 0.055 0.215 0.127zM21.235 7.084c0.016 0.026-0.057 0.074-0.162 0.107-0.546 0.175-2.342 1.018-2.342 1.099 0 0.021 0.222 0.146 0.494 0.278s0.547 0.282 0.613 0.333l0.119 0.093-1.807 2.375c-0.994 1.306-1.828 2.383-1.853 2.392-0.104 0.038-0.011-1.4 0.137-2.118 0.154-0.746 0.515-1.608 0.898-2.145 0.265-0.371 0.848-0.934 1.135-1.095 0.112-0.063 0.194-0.142 0.182-0.174-0.027-0.069 1.116-0.653 1.904-0.973 0.564-0.229 0.636-0.247 0.682-0.173zM21.62 8.082c-0.1 0.681-0.343 1.746-0.409 1.791-0.020 0.014-0.074 0.169-0.119 0.344-0.314 1.231-1.256 2.303-2.617 2.979-0.629 0.313-2.015 0.765-1.964 0.642 0.010-0.025 0.827-1.107 1.814-2.406l1.795-2.36 0.22 0.158c0.121 0.087 0.336 0.257 0.478 0.378s0.275 0.202 0.295 0.179c0.064-0.070 0.296-1.127 0.381-1.737 0.095-0.685 0.11-0.743 0.175-0.677 0.031 0.031 0.013 0.291-0.049 0.709zM21.191 7.954c0.011 0.018-0.013 0.061-0.055 0.096-0.063 0.052-0.075 0.045-0.075-0.043 0-0.058-0.043-0.129-0.095-0.156-0.074-0.039-0.116-0.027-0.189 0.054-0.093 0.102-0.092 0.106 0.017 0.195 0.137 0.111 0.092 0.178-0.052 0.077-0.093-0.065-0.111-0.062-0.175 0.029-0.056 0.080-0.058 0.117-0.010 0.176 0.034 0.041 0.045 0.074 0.025 0.074-0.066 0-0.33-0.173-0.33-0.216 0-0.024 0.021-0.030 0.047-0.014 0.066 0.041 0.358-0.324 0.393-0.49l0.029-0.138 0.226 0.162c0.124 0.089 0.235 0.177 0.246 0.196zM16.426 7.748c0.77 0.088 2.002 0.392 2.002 0.494 0 0.020-0.147 0.144-0.326 0.277-1.23 0.91-1.953 2.742-1.953 4.948v0.495l-0.392 0.056c-0.714 0.102-1.343 0.161-1.374 0.13-0.074-0.074-0.026-1.016 0.064-1.279 0.051-0.148 0.084-0.278 0.073-0.288s-0.127 0.066-0.259 0.169c-0.48 0.379-0.846 1.021-0.927 1.628-0.027 0.203-0.058 0.247-0.28 0.4-0.662 0.456-1.36 1.502-1.678 2.511-0.232 0.737-0.309 1.331-0.312 2.402l-0.003 0.984-0.177 0.043c-0.097 0.024-0.477 0.133-0.842 0.244s-0.676 0.201-0.69 0.201c-0.042 0-0.564-0.717-0.755-1.038-0.561-0.939-0.947-1.993-1.111-3.038-0.083-0.529-0.083-1.922 0.001-2.405 0.32-1.853 1.078-3.341 2.343-4.596 0.617-0.613 1.233-1.067 1.967-1.448 1.442-0.751 3.085-1.066 4.63-0.889zM8.444 9.427c0.091 0.091 0.074 0.136-0.040 0.106-0.065-0.017-0.112 0.004-0.134 0.060-0.041 0.107 0.372 0.484 0.483 0.441 0.051-0.020 0.060-0.007 0.031 0.044-0.119 0.207-0.31 0.339-0.245 0.169 0.046-0.12-0.384-0.544-0.474-0.469-0.037 0.031-0.055 0.099-0.038 0.15 0.036 0.113-0.068 0.128-0.111 0.017-0.018-0.048 0.054-0.171 0.191-0.324 0.249-0.277 0.253-0.28 0.338-0.196zM22.12 10.986c0.72 0.948 1.211 2.035 1.473 3.265 0.138 0.649 0.19 1.964 0.102 2.624-0.367 2.765-2.014 5.081-4.507 6.336-1.683 0.848-3.851 1.069-5.672 0.579-0.545-0.147-1.513-0.534-1.9-0.76-0.214-0.125-0.338-0.172-0.349-0.133-0.009 0.034-0.065 0.291-0.125 0.571-0.169 0.796-0.463 1.642-0.569 1.642-0.063 0-0.066 0.013 0.179-0.683 0.098-0.278 0.23-0.763 0.293-1.076 0.066-0.323 0.14-0.57 0.173-0.57 0.087 0 0.135-0.74 0.089-1.385-0.022-0.31-0.041-0.585-0.042-0.61s0.192-0.085 0.429-0.133c0.603-0.123 1.305-0.365 1.899-0.656 1.245-0.61 1.992-1.32 2.491-2.368 0.183-0.383 0.248-0.474 0.359-0.501 0.386-0.092 0.788-0.331 1.114-0.663 0.186-0.189 0.377-0.414 0.426-0.501l0.088-0.158-0.316 0.127c-0.22 0.089-0.449 0.135-0.754 0.152l-0.438 0.025-0.033 0.234c-0.048 0.346-0.175 0.765-0.231 0.765-0.066 0-0.063-0.045 0.027-0.388 0.042-0.16 0.076-0.378 0.076-0.483 0-0.127 0.023-0.192 0.068-0.192 0.056 0 0.051-0.1-0.025-0.544-0.051-0.299-0.099-0.748-0.106-0.997l-0.013-0.453 0.658-0.183c1.448-0.402 2.418-0.947 3.204-1.8 0.492-0.534 0.863-1.2 1.028-1.846l0.058-0.228 0.279 0.304c0.153 0.167 0.408 0.475 0.567 0.684zM16.049 14.102c0 0.040-0.9 1.225-0.956 1.26-0.064 0.040-0.381-0.4-0.543-0.754-0.072-0.158-0.123-0.295-0.114-0.304s0.348-0.055 0.751-0.101 0.743-0.094 0.755-0.106c0.031-0.031 0.106-0.028 0.106 0.005zM16.329 15.473c0.1 0.621 0.105 0.594-0.103 0.56-0.218-0.035-0.8-0.317-0.913-0.442-0.079-0.087-0.056-0.127 0.39-0.71l0.473-0.618 0.040 0.374c0.022 0.205 0.073 0.581 0.114 0.835zM13.495 15.644c0.105 0.263 0.302 0.567 0.52 0.8l0.152 0.163-1.393 1.835c-0.766 1.009-1.434 1.877-1.484 1.929-0.088 0.092-0.092 0.079-0.125-0.38-0.059-0.831 0.091-1.98 0.363-2.778 0.317-0.93 0.809-1.678 1.474-2.241l0.285-0.241 0.059 0.342c0.032 0.188 0.1 0.445 0.149 0.57zM15.037 17.089c0.125 0.045 0.425 0.097 0.667 0.116l0.439 0.034-0.168 0.361c-0.411 0.887-1.292 1.74-2.331 2.26-0.585 0.293-2.16 0.805-2.237 0.728-0.014-0.014 0.632-0.889 1.435-1.945l1.46-1.921 0.254 0.142c0.139 0.078 0.356 0.18 0.481 0.225zM10.533 21.387c-0.353 0.456-0.428 0.527-0.506 0.485-0.12-0.064-0.57-0.565-0.537-0.597 0.039-0.039 1.418-0.461 1.439-0.44 0.010 0.010-0.168 0.259-0.396 0.553zM11.206 21.458c0.034 0.516-0.006 1.273-0.067 1.273-0.067 0-0.862-0.607-0.862-0.658 0-0.076 0.823-1.162 0.863-1.138 0.018 0.011 0.048 0.247 0.066 0.523zM23.015 21.717c0.128 0.092 0.261 0.15 0.304 0.134 0.091-0.035 0.065 0.017-0.146 0.288-0.082 0.106-0.182 0.186-0.222 0.177-0.099-0.021-0.086-0.115 0.016-0.116 0.045-0 0.107-0.039 0.137-0.086 0.042-0.066 0.032-0.11-0.043-0.193l-0.097-0.107-0.087 0.116c-0.048 0.064-0.104 0.099-0.124 0.079s0.001-0.079 0.048-0.13c0.079-0.087 0.078-0.099-0.009-0.177-0.122-0.111-0.144-0.107-0.242 0.043-0.067 0.102-0.071 0.142-0.020 0.203 0.035 0.042 0.041 0.076 0.012 0.076s-0.079-0.034-0.113-0.075c-0.051-0.061-0.027-0.123 0.133-0.341 0.162-0.221 0.198-0.248 0.21-0.16 0.008 0.059 0.118 0.18 0.243 0.27zM9.796 22.66c-0.001 0.124-0.15 0.831-0.174 0.83-0.046-0.003-0.205-0.134-0.205-0.169 0-0.018 0.028-0.027 0.062-0.020s0.069-0.033 0.078-0.089c0.011-0.069-0.032-0.13-0.132-0.189-0.128-0.076-0.156-0.078-0.209-0.014-0.033 0.040-0.045 0.099-0.025 0.131 0.027 0.043 0.009 0.044-0.069 0.002-0.125-0.067-0.189-0.157-0.111-0.157 0.031 0 0.197-0.091 0.37-0.201 0.299-0.192 0.416-0.226 0.415-0.123zM9.525 22.813c-0.090 0.063-0.101 0.094-0.054 0.151 0.087 0.105 0.133 0.088 0.17-0.061 0.043-0.171 0.022-0.187-0.116-0.090zM8.633 23.929c0.129 0.050 0.226 0.317 0.168 0.467-0.113 0.298-0.417 0.346-0.625 0.1-0.1-0.119-0.127-0.193-0.104-0.291 0.058-0.244 0.313-0.37 0.56-0.276zM8.236 24.664c0.155 0.146 0.152 0.366-0.007 0.525-0.351 0.351-0.865-0.156-0.525-0.518 0.141-0.15 0.376-0.153 0.532-0.007z"></path>
</symbol>
<symbol id="facebook" viewBox="0 0 32 32">
<path d="M19 6h5v-6h-5c-3.86 0-7 3.14-7 7v3h-4v6h4v16h6v-16h5l1-6h-6v-3c0-0.542 0.458-1 1-1z"></path>
</symbol>
<symbol id="instagram" viewBox="0 0 32 32">
<path d="M16 2.881c4.275 0 4.781 0.019 6.462 0.094 1.563 0.069 2.406 0.331 2.969 0.55 0.744 0.288 1.281 0.638 1.837 1.194 0.563 0.563 0.906 1.094 1.2 1.838 0.219 0.563 0.481 1.412 0.55 2.969 0.075 1.688 0.094 2.194 0.094 6.463s-0.019 4.781-0.094 6.463c-0.069 1.563-0.331 2.406-0.55 2.969-0.288 0.744-0.637 1.281-1.194 1.837-0.563 0.563-1.094 0.906-1.837 1.2-0.563 0.219-1.413 0.481-2.969 0.55-1.688 0.075-2.194 0.094-6.463 0.094s-4.781-0.019-6.463-0.094c-1.563-0.069-2.406-0.331-2.969-0.55-0.744-0.288-1.281-0.637-1.838-1.194-0.563-0.563-0.906-1.094-1.2-1.837-0.219-0.563-0.481-1.413-0.55-2.969-0.075-1.688-0.094-2.194-0.094-6.463s0.019-4.781 0.094-6.463c0.069-1.563 0.331-2.406 0.55-2.969 0.288-0.744 0.638-1.281 1.194-1.838 0.563-0.563 1.094-0.906 1.838-1.2 0.563-0.219 1.412-0.481 2.969-0.55 1.681-0.075 2.188-0.094 6.463-0.094zM16 0c-4.344 0-4.887 0.019-6.594 0.094-1.7 0.075-2.869 0.35-3.881 0.744-1.056 0.412-1.95 0.956-2.837 1.85-0.894 0.888-1.438 1.781-1.85 2.831-0.394 1.019-0.669 2.181-0.744 3.881-0.075 1.713-0.094 2.256-0.094 6.6s0.019 4.887 0.094 6.594c0.075 1.7 0.35 2.869 0.744 3.881 0.413 1.056 0.956 1.95 1.85 2.837 0.887 0.887 1.781 1.438 2.831 1.844 1.019 0.394 2.181 0.669 3.881 0.744 1.706 0.075 2.25 0.094 6.594 0.094s4.888-0.019 6.594-0.094c1.7-0.075 2.869-0.35 3.881-0.744 1.050-0.406 1.944-0.956 2.831-1.844s1.438-1.781 1.844-2.831c0.394-1.019 0.669-2.181 0.744-3.881 0.075-1.706 0.094-2.25 0.094-6.594s-0.019-4.887-0.094-6.594c-0.075-1.7-0.35-2.869-0.744-3.881-0.394-1.063-0.938-1.956-1.831-2.844-0.887-0.887-1.781-1.438-2.831-1.844-1.019-0.394-2.181-0.669-3.881-0.744-1.712-0.081-2.256-0.1-6.6-0.1v0z"></path>
<path d="M16 7.781c-4.537 0-8.219 3.681-8.219 8.219s3.681 8.219 8.219 8.219 8.219-3.681 8.219-8.219c0-4.537-3.681-8.219-8.219-8.219zM16 21.331c-2.944 0-5.331-2.387-5.331-5.331s2.387-5.331 5.331-5.331c2.944 0 5.331 2.387 5.331 5.331s-2.387 5.331-5.331 5.331z"></path>
<path d="M26.462 7.456c0 1.060-0.859 1.919-1.919 1.919s-1.919-0.859-1.919-1.919c0-1.060 0.859-1.919 1.919-1.919s1.919 0.859 1.919 1.919z"></path>
</symbol>
<symbol id="twitter" viewBox="0 0 32 32">
<path d="M32 7.075c-1.175 0.525-2.444 0.875-3.769 1.031 1.356-0.813 2.394-2.1 2.887-3.631-1.269 0.75-2.675 1.3-4.169 1.594-1.2-1.275-2.906-2.069-4.794-2.069-3.625 0-6.563 2.938-6.563 6.563 0 0.512 0.056 1.012 0.169 1.494-5.456-0.275-10.294-2.888-13.531-6.862-0.563 0.969-0.887 2.1-0.887 3.3 0 2.275 1.156 4.287 2.919 5.463-1.075-0.031-2.087-0.331-2.975-0.819 0 0.025 0 0.056 0 0.081 0 3.181 2.263 5.838 5.269 6.437-0.55 0.15-1.131 0.231-1.731 0.231-0.425 0-0.831-0.044-1.237-0.119 0.838 2.606 3.263 4.506 6.131 4.563-2.25 1.762-5.075 2.813-8.156 2.813-0.531 0-1.050-0.031-1.569-0.094 2.913 1.869 6.362 2.95 10.069 2.95 12.075 0 18.681-10.006 18.681-18.681 0-0.287-0.006-0.569-0.019-0.85 1.281-0.919 2.394-2.075 3.275-3.394z"></path>
</symbol>
</defs>
</svg>
